<svg xmlns="http://www.w3.org/2000/svg" xmlns:xlink="http://www.w3.org/1999/xlink" width="500" zoomAndPan="magnify" viewBox="0 0 375 374.999991" height="500" preserveAspectRatio="xMidYMid meet" version="1.0"><path fill="#7dd3fc" d="M 190.511719 14.992188 C 173.957031 17.6875 161.179688 23.914062 151.175781 34.160156 C 143.660156 41.917969 138.195312 51.398438 134.738281 62.730469 C 134.21875 64.539062 133.855469 66.148438 132.449219 72.976562 C 132.167969 74.183594 131.847656 76.796875 131.644531 78.804688 C 130.921875 87.28125 129.878906 92.347656 128.671875 93.589844 C 127.90625 94.355469 123.046875 101.75 122 103.71875 C 121.761719 104.160156 121.238281 105.042969 120.835938 105.726562 C 120.394531 106.371094 119.589844 107.734375 119.066406 108.742188 C 118.503906 109.746094 117.703125 111.191406 117.257812 111.957031 C 116.296875 113.601562 109.625 126.984375 108.460938 129.636719 C 107.496094 131.804688 105.285156 137.269531 104.441406 139.480469 C 104.121094 140.363281 103.636719 141.609375 103.355469 142.292969 C 102.714844 143.820312 102.191406 145.265625 100.503906 150.53125 C 99.738281 152.863281 98.894531 155.273438 98.65625 155.957031 C 98.414062 156.597656 98.050781 157.804688 97.890625 158.566406 C 97.691406 159.332031 97.167969 161.21875 96.726562 162.785156 C 96.242188 164.3125 95.722656 166.324219 95.519531 167.207031 C 95.320312 168.089844 94.957031 169.699219 94.675781 170.824219 C 92.949219 177.976562 92.304688 181.070312 91.863281 184.285156 C 91.742188 185.492188 91.382812 187.582031 91.140625 188.90625 C 90.539062 192 89.652344 198.910156 88.808594 206.707031 C 88.046875 213.980469 87.925781 241.0625 88.648438 246.367188 C 88.890625 248.136719 89.25 251.390625 89.414062 253.601562 C 89.613281 255.8125 89.976562 258.984375 90.214844 260.632812 C 91.984375 271.765625 92.585938 275.261719 93.671875 280.324219 C 97.289062 297.5625 97.570312 305.4375 94.835938 314.878906 C 93.792969 318.417969 90.898438 324.523438 89.210938 326.816406 C 88.6875 327.496094 88.246094 328.222656 88.246094 328.339844 C 88.246094 328.824219 85.875 331.71875 81.617188 336.5 C 75.507812 343.410156 74.988281 344.09375 74.988281 345.660156 C 74.988281 348.230469 77.476562 351.125 80.574219 352.171875 C 81.578125 352.53125 103.839844 352.652344 167.046875 352.652344 C 261.117188 352.652344 254.203125 352.851562 256.253906 350.121094 C 257.058594 349.035156 257.21875 348.394531 257.175781 346.023438 C 257.136719 343.210938 256.574219 341.480469 254.804688 338.789062 C 253.398438 336.621094 250.023438 333.285156 247.894531 331.878906 C 246.730469 331.15625 245.765625 330.3125 245.765625 330.070312 C 245.765625 329.828125 247.171875 328.261719 248.898438 326.535156 C 252.515625 322.996094 257.21875 316.96875 259.949219 312.269531 C 260.996094 310.5 262.039062 308.773438 262.242188 308.449219 C 262.640625 307.808594 263.96875 305.035156 264.933594 302.824219 C 265.292969 302.0625 265.738281 301.097656 265.898438 300.734375 C 267.144531 298.246094 270.71875 287.074219 272.003906 281.730469 C 272.328125 280.402344 272.847656 278.394531 273.089844 277.308594 C 273.371094 276.183594 273.652344 274.738281 273.773438 274.09375 C 273.851562 273.410156 274.175781 271.523438 274.496094 269.875 C 276.023438 261.757812 277.066406 254.042969 277.511719 247.371094 C 277.710938 244.601562 278.074219 240.339844 278.273438 237.929688 C 278.835938 232.425781 278.835938 216.875 278.3125 209.398438 C 277.230469 193.769531 276.828125 190.59375 274.65625 179.0625 C 274.375 177.613281 274.054688 175.644531 273.894531 174.640625 C 273.734375 173.636719 273.371094 171.910156 273.089844 170.824219 C 272.847656 169.699219 272.328125 167.730469 272.003906 166.402344 C 271.683594 165.078125 271.160156 162.988281 270.800781 161.78125 C 270.476562 160.578125 269.914062 158.566406 269.59375 157.363281 C 269.230469 156.15625 268.789062 154.710938 268.550781 154.148438 C 268.347656 153.585938 268.027344 152.582031 267.867188 151.9375 C 267.664062 151.253906 267.144531 149.726562 266.660156 148.523438 C 266.179688 147.316406 265.695312 145.949219 265.574219 145.507812 C 265.457031 145.066406 265.09375 144.0625 264.773438 143.296875 C 264.410156 142.535156 263.929688 141.328125 263.648438 140.6875 C 262.601562 137.992188 259.707031 131.644531 258.984375 130.441406 C 258.824219 130.117188 258.101562 128.753906 257.457031 127.425781 C 255.570312 123.6875 253.921875 120.917969 250.949219 116.457031 C 249.621094 114.488281 249.503906 113.480469 250.425781 112.71875 C 252.4375 111.070312 257.378906 103.757812 260.230469 98.210938 C 261.757812 95.199219 262.359375 94.394531 263.285156 94.113281 C 268.105469 92.667969 274.132812 90.054688 280.121094 86.882812 C 282.371094 85.675781 286.027344 82.621094 287.113281 81.015625 C 289.644531 77.316406 288.359375 73.339844 283.296875 69.523438 C 280.082031 67.070312 273.371094 63.816406 268.871094 62.53125 C 264.53125 61.285156 264.53125 61.285156 263.085938 56.90625 C 262.242188 54.492188 259.46875 48.667969 258.222656 46.65625 C 257.78125 45.976562 257.296875 45.171875 257.136719 44.847656 C 256.535156 43.5625 250.949219 36.492188 248.859375 34.402344 C 244.960938 30.464844 240.21875 26.367188 239.617188 26.367188 C 239.496094 26.367188 238.371094 25.683594 237.085938 24.796875 C 231.582031 21.183594 224.589844 18.289062 216.230469 16.199219 C 208.675781 14.308594 197.90625 13.789062 190.511719 14.992188 Z M 228.96875 49.914062 C 232.382812 51.160156 233.953125 51.882812 235.117188 52.683594 C 237.566406 54.332031 242.550781 59.796875 242.550781 60.84375 C 242.550781 61.003906 242.75 61.363281 243.03125 61.644531 C 243.714844 62.328125 244.480469 64.660156 245.402344 68.757812 C 246.085938 71.691406 246.167969 73.136719 245.964844 76.394531 C 245.683594 80.933594 245.605469 80.734375 249.300781 84.632812 C 250.226562 85.636719 252.035156 87.726562 253.238281 89.332031 L 255.488281 92.226562 L 254.003906 95.238281 C 251.351562 100.703125 246.367188 107.535156 242.871094 110.507812 C 241.0625 112.074219 239.535156 112.316406 236.925781 111.511719 C 236.160156 111.273438 234.875 110.910156 234.113281 110.75 C 233.347656 110.589844 232.0625 110.1875 231.300781 109.945312 C 226.839844 108.339844 223.984375 107.253906 222.058594 106.410156 C 221.292969 106.089844 220.046875 105.527344 219.363281 105.246094 C 218.640625 104.964844 217.476562 104.441406 216.753906 104.160156 C 212.976562 102.550781 206.746094 99.21875 204.898438 97.851562 C 203.050781 96.445312 200.15625 93.109375 198.871094 90.777344 C 198.589844 90.257812 197.949219 88.730469 197.464844 87.363281 C 196.21875 83.90625 196.140625 74.585938 197.304688 70.566406 C 200.316406 60.238281 206.867188 52.925781 215.628906 50.074219 C 218.640625 49.109375 226.519531 48.988281 228.96875 49.914062 Z M 265.855469 69.5625 C 266.136719 69.882812 266.863281 70.164062 267.464844 70.164062 C 268.066406 70.164062 268.789062 70.445312 269.070312 70.769531 C 269.351562 71.089844 269.914062 71.371094 270.277344 71.371094 C 270.679688 71.371094 271.523438 71.652344 272.164062 71.933594 C 272.769531 72.253906 273.570312 72.65625 273.894531 72.777344 C 274.214844 72.898438 275.058594 73.339844 275.703125 73.78125 C 276.386719 74.222656 277.230469 74.707031 277.628906 74.828125 C 277.992188 74.988281 278.3125 75.226562 278.3125 75.429688 C 278.3125 75.628906 278.753906 76.03125 279.316406 76.273438 C 279.878906 76.515625 280.324219 76.914062 280.324219 77.15625 C 280.324219 77.71875 277.429688 79.769531 275.019531 80.933594 C 273.972656 81.417969 273.007812 82.019531 272.890625 82.21875 C 272.769531 82.460938 272.328125 82.621094 271.925781 82.621094 C 271.523438 82.621094 270.960938 82.902344 270.679688 83.222656 C 270.398438 83.546875 269.753906 83.828125 269.273438 83.828125 C 268.789062 83.828125 268.148438 84.109375 267.867188 84.429688 C 267.585938 84.75 266.902344 85.03125 266.339844 85.03125 C 265.777344 85.03125 265.011719 85.273438 264.691406 85.59375 C 264.328125 85.875 263.367188 86.238281 262.5625 86.359375 C 261.15625 86.558594 260.953125 86.480469 259.75 84.914062 C 259.066406 83.988281 257.699219 82.5 256.816406 81.578125 L 255.128906 79.929688 L 257.859375 77.359375 C 260.433594 74.945312 263.445312 71.371094 263.445312 70.726562 C 263.445312 70.324219 264.691406 68.960938 265.054688 68.960938 C 265.214844 68.960938 265.574219 69.242188 265.855469 69.5625 Z M 244.480469 120.636719 C 245.523438 120.835938 246.046875 121.4375 247.773438 124.371094 C 248.898438 126.261719 249.984375 128.109375 250.183594 128.429688 C 251.792969 131.121094 257.378906 143.097656 258.222656 145.710938 C 258.421875 146.273438 258.945312 147.71875 259.425781 148.925781 C 259.871094 150.128906 260.632812 152.21875 261.074219 153.546875 C 261.515625 154.871094 262.039062 156.476562 262.28125 157.160156 C 262.523438 157.804688 262.882812 159.011719 263.042969 159.773438 C 263.246094 160.535156 263.765625 162.425781 264.210938 163.992188 C 264.691406 165.519531 265.214844 167.527344 265.414062 168.414062 C 265.617188 169.296875 265.9375 170.824219 266.179688 171.828125 C 267.867188 178.902344 269.792969 190.070312 270.316406 195.9375 C 270.476562 198.027344 270.839844 201.121094 271.082031 202.769531 C 271.84375 207.753906 271.765625 238.171875 270.921875 245.964844 C 270.15625 253.28125 269.230469 260.511719 268.628906 264.046875 C 268.386719 265.375 268.066406 267.34375 267.867188 268.46875 C 267.707031 269.554688 267.382812 271.363281 267.101562 272.488281 C 266.863281 273.570312 266.378906 275.742188 266.019531 277.308594 C 265.292969 280.726562 264.691406 282.933594 263.085938 288.160156 C 261.839844 292.097656 261.636719 292.699219 259.828125 297.199219 C 258.90625 299.488281 255.769531 306.039062 254.886719 307.445312 C 249.664062 315.925781 245.324219 321.027344 239.738281 325.289062 C 236.925781 327.417969 233.628906 329.667969 232.707031 330.148438 C 232.503906 330.269531 230.738281 331.394531 228.847656 332.640625 C 226.960938 333.886719 224.667969 335.292969 223.824219 335.777344 C 222.980469 336.257812 221.65625 336.980469 220.890625 337.421875 C 217.71875 339.3125 209.160156 343.410156 208.433594 343.410156 C 208.234375 343.410156 207.550781 343.652344 206.910156 343.972656 C 203.894531 345.460938 202.570312 345.820312 199.996094 345.820312 C 196.902344 345.820312 196.582031 345.621094 195.175781 342.40625 C 194.691406 341.28125 194.089844 340.074219 193.890625 339.714844 C 193.246094 338.507812 191.277344 332.722656 190.191406 328.945312 C 187.5 319.460938 185.328125 306.722656 184.6875 296.195312 C 184.484375 293.300781 184.125 287.714844 183.84375 283.738281 C 183.5625 279.277344 183.480469 272.527344 183.601562 266.136719 C 183.804688 257.660156 183.761719 255.730469 183.320312 255.570312 C 183 255.449219 181.792969 255.648438 180.628906 255.972656 C 176.410156 257.257812 171.066406 256.65625 166.804688 254.445312 C 164.515625 253.28125 161.097656 249.984375 158.488281 246.527344 C 156.117188 243.394531 152.097656 235.878906 150.332031 231.300781 C 149.96875 230.292969 149.40625 228.886719 149.085938 228.164062 C 148.761719 227.441406 148.523438 226.597656 148.523438 226.277344 C 148.523438 225.953125 148.28125 225.109375 147.960938 224.386719 C 146.914062 221.898438 145.347656 216.390625 143.136719 207.269531 C 142.253906 203.695312 141.089844 197.867188 139.683594 190.03125 C 139.121094 186.816406 139.800781 185.492188 141.933594 185.492188 C 143.742188 185.492188 144.503906 186.734375 144.90625 190.230469 C 145.308594 193.328125 145.910156 196.742188 146.753906 200.035156 C 147.074219 201.324219 147.316406 202.730469 147.316406 203.210938 C 147.316406 203.695312 147.558594 205.019531 147.878906 206.144531 C 148.199219 207.269531 148.761719 209.359375 149.125 210.804688 C 150.773438 217.394531 152.5 222.859375 153.988281 226.398438 C 154.308594 227.121094 154.550781 227.964844 154.550781 228.285156 C 154.550781 228.566406 154.789062 229.332031 155.113281 229.972656 C 155.394531 230.574219 155.914062 231.742188 156.277344 232.503906 C 158.566406 237.769531 160.175781 240.742188 162.546875 243.957031 C 167.648438 250.910156 173.074219 253.039062 180.46875 250.988281 C 187.058594 249.179688 189.832031 247.535156 194.773438 242.589844 C 201.324219 236 204.859375 229.449219 208.113281 218.039062 C 210.285156 210.285156 211.207031 202.085938 211.207031 190.3125 C 211.207031 178.5 210.082031 166.363281 208.152344 157.160156 C 206.910156 151.09375 207.710938 146.351562 211.289062 138.957031 C 214.984375 131.363281 221.816406 125.335938 229.894531 122.5625 C 234.914062 120.835938 241.304688 119.992188 244.480469 120.636719 Z M 239.335938 335.976562 C 239.617188 336.296875 240.140625 336.578125 240.542969 336.578125 C 240.945312 336.578125 241.464844 336.859375 241.746094 337.183594 C 242.027344 337.503906 242.429688 337.785156 242.632812 337.785156 C 243.714844 337.785156 248.136719 341.921875 248.175781 342.929688 C 248.175781 343.210938 248.457031 343.53125 248.777344 343.652344 C 249.101562 343.8125 249.382812 344.253906 249.382812 344.65625 C 249.382812 345.378906 248.859375 345.417969 235.921875 345.417969 C 228.527344 345.417969 222.460938 345.300781 222.460938 345.179688 C 222.460938 345.058594 223.222656 344.617188 224.1875 344.175781 C 225.109375 343.730469 226.4375 343.007812 227.082031 342.605469 C 227.761719 342.164062 228.648438 341.640625 229.089844 341.402344 C 229.53125 341.160156 230.457031 340.636719 231.097656 340.195312 C 231.78125 339.753906 232.585938 339.273438 232.90625 339.109375 C 233.226562 338.992188 234.152344 338.347656 234.957031 337.703125 C 235.757812 337.101562 236.605469 336.578125 236.84375 336.578125 C 237.046875 336.578125 237.449219 336.296875 237.730469 335.976562 C 238.011719 335.65625 238.371094 335.375 238.53125 335.375 C 238.691406 335.375 239.054688 335.65625 239.335938 335.976562 Z M 239.335938 335.976562 " fill-opacity="1" fill-rule="nonzero"/><path fill="#7dd3fc" d="M 226.4375 64.097656 C 225.070312 64.539062 223.664062 65.304688 222.859375 66.105469 C 222.136719 66.789062 220.851562 69.804688 220.851562 70.808594 C 220.851562 72.09375 222.5 74.90625 223.824219 75.910156 C 224.992188 76.835938 225.632812 76.996094 227.882812 76.996094 C 230.457031 76.996094 230.574219 76.957031 232.265625 75.269531 C 234.113281 73.417969 234.675781 71.613281 234.234375 69.199219 C 233.628906 65.945312 229.410156 63.171875 226.4375 64.097656 Z M 226.4375 64.097656 " fill-opacity="1" fill-rule="nonzero"/></svg>