<svg xmlns="http://www.w3.org/2000/svg" xmlns:xlink="http://www.w3.org/1999/xlink" width="500" zoomAndPan="magnify" viewBox="0 0 375 374.999991" height="500" preserveAspectRatio="xMidYMid meet" version="1.0"><path fill="#000000" d="M 190.367188 14.917969 C 173.816406 17.609375 161.046875 23.835938 151.042969 34.078125 C 143.53125 41.832031 138.070312 51.308594 134.617188 62.636719 C 134.09375 64.445312 133.730469 66.050781 132.324219 72.878906 C 132.042969 74.085938 131.722656 76.695312 131.523438 78.703125 C 130.800781 87.179688 129.753906 92.238281 128.550781 93.484375 C 127.789062 94.246094 122.925781 101.636719 121.882812 103.605469 C 121.640625 104.046875 121.121094 104.933594 120.71875 105.613281 C 120.277344 106.257812 119.472656 107.625 118.949219 108.628906 C 118.386719 109.632812 117.585938 111.078125 117.144531 111.839844 C 116.179688 113.488281 109.511719 126.863281 108.347656 129.515625 C 107.382812 131.683594 105.171875 137.144531 104.328125 139.355469 C 104.007812 140.238281 103.527344 141.484375 103.246094 142.167969 C 102.601562 143.691406 102.082031 145.140625 100.394531 150.402344 C 99.628906 152.730469 98.785156 155.140625 98.546875 155.824219 C 98.304688 156.464844 97.941406 157.671875 97.78125 158.433594 C 97.582031 159.199219 97.058594 161.085938 96.617188 162.652344 C 96.136719 164.179688 95.613281 166.1875 95.414062 167.070312 C 95.210938 167.953125 94.851562 169.558594 94.570312 170.683594 C 92.84375 177.835938 92.199219 180.925781 91.757812 184.140625 C 91.636719 185.347656 91.277344 187.433594 91.035156 188.761719 C 90.433594 191.851562 89.546875 198.761719 88.703125 206.554688 C 87.941406 213.824219 87.820312 240.894531 88.542969 246.199219 C 88.785156 247.964844 89.148438 251.21875 89.308594 253.429688 C 89.507812 255.636719 89.871094 258.8125 90.109375 260.457031 C 91.878906 271.582031 92.480469 275.078125 93.566406 280.140625 C 97.179688 297.371094 97.460938 305.242188 94.730469 314.683594 C 93.6875 318.21875 90.792969 324.324219 89.105469 326.613281 C 88.585938 327.292969 88.144531 328.019531 88.144531 328.136719 C 88.144531 328.621094 85.773438 331.511719 81.515625 336.292969 C 75.410156 343.199219 74.886719 343.882812 74.886719 345.449219 C 74.886719 348.019531 77.378906 350.914062 80.472656 351.957031 C 81.476562 352.320312 103.726562 352.4375 166.910156 352.4375 C 260.941406 352.4375 254.03125 352.640625 256.078125 349.910156 C 256.882812 348.824219 257.042969 348.179688 257.003906 345.8125 C 256.964844 343 256.402344 341.273438 254.632812 338.582031 C 253.226562 336.414062 249.855469 333.078125 247.726562 331.671875 C 246.558594 330.949219 245.597656 330.105469 245.597656 329.867188 C 245.597656 329.625 247 328.058594 248.730469 326.332031 C 252.34375 322.796875 257.042969 316.769531 259.773438 312.070312 C 260.820312 310.304688 261.863281 308.578125 262.0625 308.257812 C 262.464844 307.613281 263.792969 304.839844 264.753906 302.632812 C 265.117188 301.871094 265.558594 300.90625 265.71875 300.542969 C 266.964844 298.054688 270.539062 286.886719 271.824219 281.546875 C 272.144531 280.21875 272.667969 278.210938 272.910156 277.125 C 273.191406 276.003906 273.472656 274.554688 273.59375 273.914062 C 273.671875 273.230469 273.992188 271.34375 274.316406 269.695312 C 275.839844 261.582031 276.886719 253.871094 277.328125 247.203125 C 277.527344 244.429688 277.890625 240.171875 278.089844 237.761719 C 278.652344 232.261719 278.652344 216.714844 278.132812 209.246094 C 277.046875 193.621094 276.644531 190.445312 274.476562 178.917969 C 274.195312 177.472656 273.875 175.503906 273.710938 174.5 C 273.550781 173.496094 273.191406 171.769531 272.910156 170.683594 C 272.667969 169.558594 272.144531 167.59375 271.824219 166.265625 C 271.503906 164.941406 270.980469 162.851562 270.621094 161.648438 C 270.296875 160.441406 269.734375 158.433594 269.414062 157.230469 C 269.054688 156.023438 268.613281 154.578125 268.371094 154.015625 C 268.167969 153.453125 267.847656 152.449219 267.6875 151.808594 C 267.488281 151.125 266.964844 149.597656 266.484375 148.390625 C 266 147.1875 265.519531 145.820312 265.398438 145.378906 C 265.277344 144.9375 264.917969 143.933594 264.59375 143.171875 C 264.234375 142.40625 263.75 141.203125 263.46875 140.558594 C 262.425781 137.867188 259.535156 131.523438 258.8125 130.316406 C 258.648438 129.996094 257.925781 128.628906 257.285156 127.304688 C 255.398438 123.570312 253.75 120.796875 250.777344 116.339844 C 249.453125 114.371094 249.332031 113.367188 250.253906 112.605469 C 252.261719 110.957031 257.203125 103.648438 260.054688 98.105469 C 261.582031 95.089844 262.183594 94.289062 263.109375 94.007812 C 267.929688 92.5625 273.953125 89.949219 279.9375 86.777344 C 282.1875 85.570312 285.84375 82.519531 286.925781 80.914062 C 289.457031 77.21875 288.171875 73.242188 283.113281 69.425781 C 279.898438 66.976562 273.191406 63.722656 268.691406 62.4375 C 264.355469 61.191406 264.355469 61.191406 262.90625 56.8125 C 262.0625 54.402344 259.292969 48.578125 258.046875 46.570312 C 257.605469 45.886719 257.125 45.082031 256.964844 44.761719 C 256.359375 43.476562 250.777344 36.40625 248.6875 34.320312 C 244.792969 30.382812 240.054688 26.285156 239.449219 26.285156 C 239.328125 26.285156 238.207031 25.601562 236.921875 24.71875 C 231.417969 21.105469 224.429688 18.210938 216.074219 16.125 C 208.523438 14.234375 197.757812 13.714844 190.367188 14.917969 Z M 228.804688 49.824219 C 232.21875 51.070312 233.785156 51.792969 234.953125 52.59375 C 237.402344 54.242188 242.382812 59.703125 242.382812 60.75 C 242.382812 60.910156 242.582031 61.269531 242.863281 61.550781 C 243.546875 62.234375 244.3125 64.566406 245.234375 68.660156 C 245.917969 71.59375 245.996094 73.039062 245.796875 76.292969 C 245.515625 80.832031 245.433594 80.632812 249.128906 84.527344 C 250.054688 85.53125 251.863281 87.621094 253.066406 89.226562 L 255.316406 92.117188 L 253.832031 95.132812 C 251.179688 100.59375 246.199219 107.421875 242.703125 110.394531 C 240.894531 111.960938 239.371094 112.203125 236.757812 111.398438 C 235.996094 111.15625 234.710938 110.796875 233.949219 110.636719 C 233.183594 110.476562 231.898438 110.074219 231.136719 109.832031 C 226.675781 108.226562 223.824219 107.140625 221.898438 106.296875 C 221.132812 105.976562 219.890625 105.414062 219.207031 105.132812 C 218.484375 104.851562 217.320312 104.328125 216.59375 104.046875 C 212.820312 102.441406 206.59375 99.109375 204.746094 97.742188 C 202.898438 96.335938 200.007812 93.003906 198.722656 90.671875 C 198.441406 90.152344 197.796875 88.625 197.316406 87.257812 C 196.070312 83.804688 195.988281 74.484375 197.15625 70.46875 C 200.167969 60.144531 206.714844 52.835938 215.472656 49.984375 C 218.484375 49.019531 226.355469 48.898438 228.804688 49.824219 Z M 265.679688 69.464844 C 265.960938 69.785156 266.683594 70.066406 267.285156 70.066406 C 267.886719 70.066406 268.613281 70.347656 268.894531 70.671875 C 269.171875 70.992188 269.734375 71.273438 270.097656 71.273438 C 270.5 71.273438 271.34375 71.554688 271.984375 71.835938 C 272.589844 72.15625 273.390625 72.558594 273.710938 72.679688 C 274.035156 72.800781 274.878906 73.242188 275.519531 73.683594 C 276.203125 74.125 277.046875 74.605469 277.449219 74.726562 C 277.808594 74.886719 278.132812 75.128906 278.132812 75.328125 C 278.132812 75.53125 278.574219 75.933594 279.136719 76.171875 C 279.699219 76.414062 280.140625 76.816406 280.140625 77.054688 C 280.140625 77.617188 277.246094 79.667969 274.835938 80.832031 C 273.792969 81.3125 272.828125 81.917969 272.707031 82.117188 C 272.589844 82.359375 272.144531 82.519531 271.746094 82.519531 C 271.34375 82.519531 270.78125 82.800781 270.5 83.121094 C 270.21875 83.441406 269.574219 83.722656 269.09375 83.722656 C 268.613281 83.722656 267.96875 84.003906 267.6875 84.328125 C 267.40625 84.648438 266.722656 84.929688 266.160156 84.929688 C 265.597656 84.929688 264.835938 85.171875 264.515625 85.492188 C 264.152344 85.773438 263.1875 86.132812 262.386719 86.253906 C 260.980469 86.457031 260.777344 86.375 259.574219 84.808594 C 258.890625 83.886719 257.527344 82.398438 256.640625 81.476562 L 254.953125 79.828125 L 257.6875 77.257812 C 260.257812 74.847656 263.269531 71.273438 263.269531 70.628906 C 263.269531 70.226562 264.515625 68.863281 264.875 68.863281 C 265.035156 68.863281 265.398438 69.144531 265.679688 69.464844 Z M 244.3125 120.515625 C 245.355469 120.71875 245.878906 121.320312 247.605469 124.253906 C 248.730469 126.140625 249.8125 127.988281 250.015625 128.308594 C 251.621094 131 257.203125 142.96875 258.046875 145.582031 C 258.25 146.144531 258.769531 147.589844 259.253906 148.792969 C 259.695312 150 260.457031 152.089844 260.898438 153.414062 C 261.339844 154.738281 261.863281 156.34375 262.105469 157.027344 C 262.34375 157.671875 262.707031 158.875 262.867188 159.640625 C 263.070312 160.402344 263.589844 162.289062 264.03125 163.855469 C 264.515625 165.382812 265.035156 167.390625 265.238281 168.273438 C 265.4375 169.160156 265.757812 170.683594 266 171.6875 C 267.6875 178.757812 269.617188 189.925781 270.136719 195.789062 C 270.296875 197.878906 270.660156 200.972656 270.902344 202.617188 C 271.664062 207.597656 271.582031 238.003906 270.742188 245.796875 C 269.976562 253.105469 269.054688 260.335938 268.449219 263.871094 C 268.210938 265.195312 267.886719 267.164062 267.6875 268.289062 C 267.527344 269.375 267.207031 271.183594 266.925781 272.308594 C 266.683594 273.390625 266.203125 275.558594 265.839844 277.125 C 265.117188 280.539062 264.515625 282.75 262.90625 287.972656 C 261.664062 291.90625 261.460938 292.511719 259.65625 297.007812 C 258.730469 299.296875 255.597656 305.847656 254.714844 307.25 C 249.492188 315.726562 245.152344 320.828125 239.570312 325.085938 C 236.757812 327.214844 233.464844 329.464844 232.542969 329.945312 C 232.339844 330.066406 230.574219 331.191406 228.6875 332.4375 C 226.796875 333.679688 224.507812 335.085938 223.664062 335.570312 C 222.820312 336.050781 221.496094 336.773438 220.734375 337.214844 C 217.558594 339.105469 209.003906 343.199219 208.28125 343.199219 C 208.082031 343.199219 207.398438 343.441406 206.753906 343.761719 C 203.742188 345.25 202.417969 345.609375 199.847656 345.609375 C 196.753906 345.609375 196.433594 345.410156 195.027344 342.195312 C 194.542969 341.070312 193.941406 339.867188 193.742188 339.503906 C 193.097656 338.300781 191.128906 332.515625 190.046875 328.742188 C 187.355469 319.261719 185.183594 306.527344 184.542969 296.003906 C 184.339844 293.113281 183.980469 287.53125 183.699219 283.554688 C 183.417969 279.09375 183.335938 272.347656 183.457031 265.960938 C 183.660156 257.484375 183.617188 255.558594 183.175781 255.398438 C 182.855469 255.277344 181.652344 255.476562 180.484375 255.796875 C 176.269531 257.082031 170.925781 256.480469 166.667969 254.273438 C 164.378906 253.105469 160.964844 249.8125 158.355469 246.359375 C 155.984375 243.226562 151.96875 235.714844 150.199219 231.136719 C 149.839844 230.132812 149.277344 228.726562 148.953125 228.003906 C 148.632812 227.28125 148.394531 226.4375 148.394531 226.113281 C 148.394531 225.792969 148.152344 224.949219 147.832031 224.226562 C 146.785156 221.738281 145.21875 216.234375 143.011719 207.117188 C 142.125 203.542969 140.960938 197.71875 139.554688 189.882812 C 138.992188 186.671875 139.675781 185.347656 141.804688 185.347656 C 143.613281 185.347656 144.375 186.589844 144.777344 190.085938 C 145.179688 193.179688 145.78125 196.59375 146.625 199.886719 C 146.945312 201.171875 147.1875 202.578125 147.1875 203.058594 C 147.1875 203.542969 147.429688 204.867188 147.75 205.992188 C 148.070312 207.117188 148.632812 209.203125 148.996094 210.652344 C 150.640625 217.238281 152.367188 222.699219 153.855469 226.234375 C 154.175781 226.957031 154.417969 227.800781 154.417969 228.125 C 154.417969 228.40625 154.660156 229.167969 154.980469 229.808594 C 155.261719 230.414062 155.785156 231.578125 156.144531 232.339844 C 158.433594 237.601562 160.039062 240.574219 162.410156 243.789062 C 167.511719 250.738281 172.933594 252.867188 180.324219 250.816406 C 186.914062 249.011719 189.683594 247.363281 194.625 242.421875 C 201.171875 235.835938 204.707031 229.289062 207.960938 217.882812 C 210.128906 210.128906 211.050781 201.933594 211.050781 190.164062 C 211.050781 178.355469 209.929688 166.226562 208 157.027344 C 206.753906 150.964844 207.558594 146.222656 211.132812 138.832031 C 214.828125 131.242188 221.65625 125.214844 229.730469 122.445312 C 234.75 120.71875 241.136719 119.875 244.3125 120.515625 Z M 239.167969 335.769531 C 239.449219 336.089844 239.972656 336.371094 240.375 336.371094 C 240.777344 336.371094 241.296875 336.652344 241.578125 336.976562 C 241.859375 337.296875 242.261719 337.578125 242.464844 337.578125 C 243.546875 337.578125 247.964844 341.714844 248.007812 342.71875 C 248.007812 343 248.289062 343.320312 248.609375 343.441406 C 248.929688 343.601562 249.210938 344.042969 249.210938 344.445312 C 249.210938 345.167969 248.6875 345.210938 235.753906 345.210938 C 228.363281 345.210938 222.300781 345.089844 222.300781 344.96875 C 222.300781 344.847656 223.0625 344.40625 224.027344 343.964844 C 224.949219 343.523438 226.277344 342.800781 226.917969 342.398438 C 227.601562 341.957031 228.484375 341.433594 228.925781 341.191406 C 229.367188 340.953125 230.292969 340.429688 230.933594 339.988281 C 231.617188 339.546875 232.421875 339.0625 232.742188 338.902344 C 233.0625 338.78125 233.988281 338.140625 234.792969 337.496094 C 235.59375 336.894531 236.4375 336.371094 236.679688 336.371094 C 236.878906 336.371094 237.28125 336.089844 237.5625 335.769531 C 237.84375 335.449219 238.207031 335.167969 238.367188 335.167969 C 238.527344 335.167969 238.886719 335.449219 239.167969 335.769531 Z M 239.167969 335.769531 " fill-opacity="1" fill-rule="nonzero"/><path fill="#000000" d="M 226.277344 64.003906 C 224.910156 64.445312 223.503906 65.207031 222.699219 66.011719 C 221.976562 66.695312 220.691406 69.707031 220.691406 70.710938 C 220.691406 71.996094 222.339844 74.808594 223.664062 75.8125 C 224.828125 76.734375 225.472656 76.894531 227.722656 76.894531 C 230.292969 76.894531 230.414062 76.855469 232.101562 75.167969 C 233.949219 73.320312 234.511719 71.511719 234.066406 69.105469 C 233.464844 65.851562 229.25 63.078125 226.277344 64.003906 Z M 226.277344 64.003906 " fill-opacity="1" fill-rule="nonzero"/></svg>